<?xml version="1.0" encoding="utf-8"?>
<!-- Generator: Adobe Illustrator 16.0.0, SVG Export Plug-In . SVG Version: 6.00 Build 0)  -->
<!DOCTYPE svg PUBLIC "-//W3C//DTD SVG 1.1//EN" "http://www.w3.org/Graphics/SVG/1.1/DTD/svg11.dtd">
<svg version="1.1" id="katman_1" xmlns="http://www.w3.org/2000/svg" xmlns:xlink="http://www.w3.org/1999/xlink" x="0px" y="0px"
	 width="105px" height="105px" viewBox="203.5 203.5 105 105" enable-background="new 203.5 203.5 105 105" xml:space="preserve">
<g>
	<path fill="#FFE2CB" d="M256,203.5c-28.994,0-52.5,23.506-52.5,52.5s23.506,52.5,52.5,52.5s52.5-23.506,52.5-52.5
		S284.994,203.5,256,203.5z M301.354,275.156c-1.877,4.436-4.366,8.531-7.429,12.219c-0.017,0.014-0.033,0.028-0.049,0.043
		c-1.978,1.635-5.408,1.05-7.858-1.4c2.45,2.45,3.033,5.881,1.4,7.858c-0.015,0.016-0.029,0.032-0.043,0.049
		c-3.688,3.063-7.783,5.552-12.219,7.429c-4.639,1.962-9.499,3.185-14.503,3.65c-0.029-0.002-0.058-0.005-0.086-0.007
		c-2.554-0.242-4.567-3.08-4.567-6.546c0,3.466-2.014,6.304-4.567,6.546c-0.029,0.002-0.058,0.005-0.086,0.007
		c-5.004-0.466-9.864-1.688-14.503-3.65c-4.434-1.877-8.527-4.364-12.215-7.426c-0.016-0.017-0.03-0.036-0.045-0.052
		c-1.634-1.978-1.052-5.408,1.399-7.858c-2.451,2.45-5.882,3.033-7.859,1.398c-0.016-0.015-0.035-0.029-0.051-0.046
		c-3.062-3.687-5.549-7.78-7.426-12.214c-1.962-4.639-3.185-9.499-3.65-14.503c0.002-0.029,0.004-0.058,0.006-0.086
		c0.242-2.554,3.08-4.567,6.546-4.567c-3.466,0-6.304-2.014-6.546-4.567c-0.002-0.029-0.004-0.058-0.006-0.086
		c0.465-5.004,1.688-9.864,3.65-14.503c1.876-4.434,4.364-8.527,7.426-12.215c0.017-0.016,0.035-0.03,0.051-0.045
		c1.977-1.634,5.408-1.052,7.859,1.399c-2.451-2.451-3.033-5.882-1.399-7.859c0.015-0.016,0.029-0.035,0.045-0.051
		c3.688-3.062,7.781-5.549,12.215-7.426c4.639-1.962,9.499-3.185,14.503-3.65c0.029,0.002,0.058,0.004,0.086,0.006
		c2.553,0.242,4.567,3.08,4.567,6.546c0-3.466,2.014-6.304,4.567-6.546c0.028-0.002,0.057-0.004,0.086-0.006
		c5.004,0.465,9.864,1.688,14.503,3.65c4.437,1.876,8.531,4.366,12.219,7.428c0.014,0.017,0.029,0.033,0.043,0.049
		c1.635,1.977,1.05,5.408-1.4,7.859c2.45-2.451,5.882-3.035,7.858-1.401c0.017,0.014,0.032,0.029,0.049,0.043
		c3.063,3.688,5.552,7.783,7.429,12.219c1.962,4.639,3.185,9.499,3.65,14.503c-0.002,0.029-0.005,0.058-0.007,0.086
		c-0.242,2.553-3.08,4.567-6.546,4.567c3.466,0,6.304,2.014,6.546,4.567c0.002,0.028,0.005,0.057,0.007,0.086
		C304.538,265.657,303.315,270.518,301.354,275.156z"/>
	<g>
		<path fill="#FFE2CB" d="M297.282,251.914c1.112-1.049,2.018-2.194,2.949-3.438c1.052-1.298,0.799-2.479,0.195-3.919
			c-0.663-1.524-1.857-2.665-2.793-4c-0.653-0.934-0.653-0.934-0.896-1.43c-0.18-0.522-0.18-0.522-0.378-1.645
			c-0.283-1.606-0.245-3.258-0.853-4.803c-0.592-1.444-1.247-2.459-2.909-2.636c-1.538-0.219-2.988-0.388-4.517-0.345
			c-1.231,0.037-2.232,0.506-2.905,1.522c-0.75,1-1.19,1.692-2.015,2.993c-1.843,2.767-2.73,3.751-4.946,4.842
			c-1.519,0.748-3.083,1.377-4.836,1.828c0.551,0.409,7.313-0.443,9.816-2.559c1.17-0.99,2.03-2.226,3.059-3.361
			c1.52-1.481,4.005-1.289,4.781,0.482c0.3,0.7,0.523,1.313,0.642,2.198c0.077,0.974,0.287,1.894,0.597,2.769
			c0.057,0.163,0.117,0.324,0.184,0.486c0.067,0.162,0.139,0.318,0.214,0.474c0.399,0.838,0.902,1.636,1.535,2.38
			c0.543,0.709,0.818,1.301,1.1,2.005c0.704,1.803-0.917,3.697-3.039,3.724c-1.53-0.077-3.012-0.342-4.539-0.214
			c-3.266,0.273-8.65,4.452-8.751,5.131c1.559-0.921,3.11-1.583,4.713-2.127c2.338-0.795,3.661-0.727,6.921-0.073
			c1.502,0.336,2.303,0.515,3.541,0.691C295.346,253.136,296.387,252.76,297.282,251.914z"/>
		<path fill="#FFE2CB" d="M223.918,282.3c-1.528,0.044-2.979-0.126-4.517-0.347c-1.662-0.174-2.317-1.188-2.909-2.633
			c-0.609-1.547-0.57-3.198-0.853-4.804c-0.198-1.122-0.198-1.122-0.377-1.645c-0.243-0.496-0.243-0.496-0.896-1.43
			c-0.936-1.336-2.131-2.478-2.793-3.999c-0.603-1.439-0.856-2.621,0.194-3.921c0.933-1.242,1.839-2.388,2.95-3.438
			c0.896-0.844,1.937-1.221,3.131-0.978c1.238,0.177,2.039,0.355,3.541,0.691c3.259,0.653,4.583,0.722,6.921-0.073
			c1.603-0.545,3.154-1.206,4.712-2.127c-0.101,0.68-5.485,4.858-8.751,5.132c-1.527,0.127-3.009-0.139-4.539-0.215
			c-2.122,0.027-3.743,1.922-3.04,3.722c0.283,0.708,0.559,1.299,1.1,2.008c0.634,0.744,1.136,1.542,1.536,2.38
			c0.075,0.156,0.146,0.313,0.214,0.475c0.067,0.161,0.127,0.322,0.184,0.486c0.31,0.875,0.519,1.795,0.597,2.769
			c0.118,0.885,0.341,1.499,0.641,2.195c0.777,1.773,3.262,1.966,4.782,0.484c1.028-1.136,1.888-2.371,3.059-3.359
			c2.502-2.116,9.265-2.969,9.816-2.56c-1.752,0.45-3.317,1.08-4.836,1.827c-2.216,1.091-3.103,2.075-4.946,4.842
			c-0.825,1.301-1.264,1.993-2.015,2.992C226.151,281.794,225.149,282.264,223.918,282.3z"/>
		<path fill="#FFE2CB" d="M251.914,214.717c-1.049-1.111-2.194-2.017-3.438-2.949c-1.298-1.052-2.479-0.798-3.919-0.195
			c-1.524,0.664-2.665,1.858-4,2.793c-0.934,0.653-0.934,0.653-1.43,0.896c-0.522,0.18-0.522,0.18-1.645,0.378
			c-1.606,0.283-3.258,0.245-4.803,0.853c-1.444,0.592-2.459,1.247-2.636,2.91c-0.218,1.538-0.388,2.988-0.344,4.516
			c0.037,1.231,0.506,2.233,1.522,2.905c1.001,0.751,1.693,1.19,2.993,2.015c2.767,1.843,3.751,2.73,4.841,4.946
			c0.748,1.519,1.377,3.083,1.828,4.836c0.409-0.551-0.443-7.313-2.559-9.816c-0.99-1.17-2.225-2.03-3.361-3.058
			c-1.481-1.52-1.288-4.005,0.483-4.781c0.7-0.301,1.313-0.523,2.198-0.642c0.974-0.078,1.893-0.287,2.769-0.597
			c0.163-0.057,0.324-0.117,0.486-0.184c0.162-0.067,0.318-0.139,0.474-0.214c0.838-0.4,1.636-0.902,2.38-1.536
			c0.709-0.542,1.301-0.818,2.005-1.099c1.803-0.704,3.697,0.917,3.724,3.039c-0.077,1.53-0.342,3.012-0.214,4.539
			c0.273,3.266,4.452,8.65,5.131,8.751c-0.921-1.558-1.583-3.11-2.127-4.712c-0.795-2.338-0.727-3.662-0.073-6.921
			c0.336-1.502,0.515-2.303,0.691-3.541C253.136,216.654,252.76,215.613,251.914,214.717z"/>
		<path fill="#FFE2CB" d="M282.3,288.082c0.044,1.527-0.126,2.979-0.347,4.517c-0.174,1.662-1.188,2.317-2.633,2.909
			c-1.547,0.608-3.198,0.57-4.804,0.853c-1.122,0.198-1.122,0.198-1.644,0.378c-0.497,0.242-0.497,0.242-1.431,0.896
			c-1.336,0.936-2.478,2.131-3.999,2.793c-1.44,0.603-2.621,0.856-3.921-0.194c-1.242-0.933-2.388-1.839-3.438-2.95
			c-0.845-0.896-1.221-1.937-0.978-3.13c0.177-1.239,0.355-2.039,0.691-3.542c0.653-3.259,0.722-4.583-0.073-6.921
			c-0.545-1.603-1.206-3.153-2.127-4.712c0.68,0.101,4.858,5.485,5.131,8.751c0.128,1.527-0.138,3.009-0.214,4.539
			c0.027,2.122,1.921,3.743,3.722,3.04c0.708-0.283,1.299-0.559,2.008-1.101c0.744-0.634,1.542-1.136,2.381-1.535
			c0.155-0.075,0.312-0.147,0.474-0.214c0.161-0.067,0.322-0.127,0.486-0.185c0.875-0.31,1.795-0.519,2.769-0.597
			c0.885-0.118,1.499-0.341,2.195-0.641c1.773-0.776,1.966-3.262,0.485-4.782c-1.137-1.028-2.371-1.888-3.36-3.059
			c-2.116-2.502-2.969-9.265-2.56-9.816c0.45,1.754,1.08,3.318,1.827,4.837c1.091,2.216,2.075,3.103,4.842,4.946
			c1.301,0.824,1.993,1.264,2.992,2.015C281.794,285.849,282.264,286.851,282.3,288.082z"/>
		<path fill="#FFE2CB" d="M223.919,229.698c-1.528-0.044-2.978,0.125-4.517,0.346c-1.662,0.175-2.317,1.189-2.909,2.633
			c-0.609,1.547-0.57,3.199-0.853,4.804c-0.199,1.122-0.199,1.122-0.378,1.644c-0.243,0.496-0.243,0.496-0.896,1.431
			c-0.936,1.335-2.131,2.477-2.794,3.999c-0.603,1.44-0.856,2.621,0.194,3.921c0.933,1.242,1.839,2.387,2.95,3.437
			c0.896,0.845,1.937,1.221,3.131,0.978c1.239-0.177,2.039-0.355,3.541-0.692c3.259-0.653,4.583-0.721,6.921,0.074
			c1.602,0.545,3.154,1.207,4.712,2.127c-0.101-0.679-5.485-4.858-8.75-5.132c-1.527-0.127-3.009,0.138-4.539,0.214
			c-2.122-0.027-3.743-1.921-3.04-3.722c0.283-0.708,0.559-1.299,1.101-2.008c0.634-0.744,1.136-1.542,1.536-2.38
			c0.075-0.155,0.147-0.313,0.214-0.474c0.067-0.161,0.127-0.323,0.184-0.486c0.31-0.876,0.519-1.795,0.597-2.77
			c0.118-0.885,0.341-1.498,0.641-2.195c0.777-1.773,3.263-1.965,4.782-0.484c1.028,1.136,1.888,2.371,3.058,3.361
			c2.502,2.116,9.265,2.969,9.816,2.56c-1.753-0.451-3.317-1.081-4.836-1.828c-2.216-1.091-3.104-2.075-4.946-4.842
			c-0.824-1.3-1.264-1.993-2.015-2.993C226.153,230.204,225.151,229.734,223.919,229.698z"/>
		<path fill="#FFE2CB" d="M297.282,260.089c1.111,1.049,2.018,2.195,2.949,3.438c1.051,1.299,0.798,2.479,0.194,3.919
			c-0.663,1.524-1.857,2.665-2.793,3.999c-0.653,0.935-0.653,0.935-0.896,1.431c-0.18,0.522-0.18,0.522-0.378,1.645
			c-0.283,1.606-0.245,3.258-0.854,4.803c-0.592,1.444-1.247,2.459-2.909,2.636c-1.538,0.218-2.988,0.387-4.517,0.344
			c-1.231-0.036-2.233-0.506-2.905-1.522c-0.751-1-1.19-1.692-2.015-2.993c-1.843-2.767-2.73-3.751-4.945-4.842
			c-1.519-0.747-3.084-1.377-4.836-1.827c0.551-0.409,7.313,0.442,9.816,2.559c1.169,0.99,2.029,2.226,3.058,3.361
			c1.52,1.481,4.005,1.288,4.781-0.482c0.301-0.7,0.523-1.313,0.642-2.197c0.078-0.975,0.287-1.894,0.597-2.77
			c0.057-0.163,0.117-0.324,0.185-0.486c0.066-0.161,0.138-0.318,0.214-0.474c0.399-0.838,0.901-1.637,1.536-2.38
			c0.541-0.709,0.817-1.301,1.099-2.005c0.704-1.804-0.917-3.697-3.039-3.725c-1.53,0.076-3.012,0.341-4.538,0.213
			c-3.267-0.272-8.65-4.452-8.751-5.131c1.558,0.921,3.109,1.582,4.712,2.127c2.338,0.796,3.661,0.728,6.921,0.074
			c1.502-0.336,2.303-0.516,3.541-0.691C295.346,258.867,296.386,259.243,297.282,260.089z"/>
		<path fill="#FFE2CB" d="M282.302,223.919c0.044-1.528-0.125-2.978-0.346-4.517c-0.175-1.662-1.188-2.317-2.633-2.909
			c-1.547-0.608-3.198-0.57-4.804-0.853c-1.122-0.198-1.122-0.198-1.645-0.378c-0.496-0.243-0.496-0.243-1.43-0.896
			c-1.336-0.936-2.478-2.131-3.999-2.793c-1.439-0.603-2.621-0.857-3.921,0.194c-1.242,0.933-2.387,1.838-3.438,2.95
			c-0.845,0.896-1.221,1.937-0.978,3.131c0.176,1.239,0.354,2.039,0.691,3.541c0.653,3.259,0.722,4.583-0.074,6.921
			c-0.545,1.602-1.206,3.153-2.127,4.712c0.679-0.101,4.858-5.485,5.132-8.75c0.127-1.527-0.139-3.009-0.214-4.539
			c0.027-2.122,1.921-3.743,3.722-3.04c0.707,0.283,1.299,0.559,2.008,1.101c0.743,0.634,1.542,1.136,2.38,1.536
			c0.155,0.075,0.313,0.146,0.474,0.213s0.323,0.127,0.486,0.184c0.876,0.31,1.795,0.519,2.77,0.597
			c0.885,0.118,1.498,0.342,2.195,0.641c1.772,0.777,1.966,3.263,0.484,4.783c-1.136,1.028-2.371,1.888-3.361,3.058
			c-2.116,2.502-2.969,9.265-2.559,9.816c0.45-1.753,1.08-3.318,1.827-4.836c1.091-2.216,2.075-3.104,4.843-4.946
			c1.3-0.825,1.992-1.264,2.992-2.015C281.796,226.152,282.267,225.151,282.302,223.919z"/>
		<path fill="#FFE2CB" d="M251.911,297.282c-1.049,1.111-2.195,2.018-3.439,2.949c-1.298,1.052-2.479,0.798-3.918,0.194
			c-1.525-0.663-2.665-1.857-4-2.793c-0.934-0.653-0.934-0.653-1.43-0.896c-0.522-0.18-0.522-0.18-1.645-0.378
			c-1.606-0.283-3.258-0.245-4.803-0.853c-1.444-0.593-2.459-1.248-2.636-2.91c-0.218-1.538-0.387-2.988-0.344-4.517
			c0.037-1.231,0.506-2.232,1.522-2.905c1.001-0.75,1.693-1.189,2.993-2.014c2.767-1.844,3.751-2.73,4.842-4.946
			c0.748-1.519,1.377-3.083,1.828-4.836c0.409,0.551-0.443,7.313-2.559,9.816c-0.99,1.17-2.226,2.029-3.361,3.058
			c-1.481,1.52-1.289,4.005,0.482,4.781c0.7,0.301,1.313,0.523,2.198,0.642c0.974,0.078,1.893,0.287,2.769,0.598
			c0.163,0.057,0.325,0.117,0.486,0.184c0.161,0.066,0.318,0.139,0.474,0.214c0.838,0.399,1.636,0.901,2.38,1.536
			c0.709,0.542,1.301,0.817,2.005,1.099c1.803,0.704,3.697-0.916,3.724-3.039c-0.076-1.529-0.341-3.012-0.213-4.538
			c0.273-3.266,4.452-8.65,5.132-8.751c-0.921,1.559-1.582,3.109-2.127,4.712c-0.795,2.338-0.727,3.662-0.074,6.922
			c0.336,1.502,0.515,2.303,0.691,3.54C253.133,295.346,252.757,296.386,251.911,297.282z"/>
	</g>
	<path fill="#FFE2CB" d="M256,274.457c-10.177,0-18.457-8.28-18.457-18.457c0-10.177,8.28-18.457,18.457-18.457
		c10.177,0,18.457,8.28,18.457,18.457C274.457,266.177,266.177,274.457,256,274.457z M256,240.004
		c-8.82,0-15.996,7.176-15.996,15.996s7.176,15.996,15.996,15.996s15.996-7.176,15.996-15.996S264.82,240.004,256,240.004z"/>
</g>
</svg>
