<?xml version="1.0" encoding="utf-8"?>
<!-- Generator: Adobe Illustrator 16.0.0, SVG Export Plug-In . SVG Version: 6.00 Build 0)  -->
<!DOCTYPE svg PUBLIC "-//W3C//DTD SVG 1.1//EN" "http://www.w3.org/Graphics/SVG/1.1/DTD/svg11.dtd">
<svg version="1.1" id="katman_1" xmlns="http://www.w3.org/2000/svg" xmlns:xlink="http://www.w3.org/1999/xlink" x="0px" y="0px"
	 width="252px" height="80px" viewBox="0 0 252 80" enable-background="new 0 0 252 80" xml:space="preserve">
<rect fill="#1BB4F9" width="252" height="80"/>
<g id="_Group_2">
	<g id="_Group_3">
		<path id="_Path_" fill="#FFFFFF" d="M58.878,37.556c0.049-3.811,2.054-7.344,5.307-9.336c-2.059-2.943-5.376-4.752-8.988-4.856
			c-3.753-0.402-7.428,2.254-9.349,2.254c-1.961,0-4.928-2.224-8.126-2.154c-4.207,0.14-8.019,2.465-10.067,6.144
			c-4.35,7.535-1.105,18.599,3.06,24.691c2.087,2.98,4.523,6.309,7.721,6.198c3.115-0.136,4.272-1.996,8.045-1.996
			c3.733,0,4.83,1.996,8.085,1.912c3.35-0.052,5.457-2.987,7.468-5.995c1.495-2.127,2.667-4.475,3.417-6.961
			C61.465,45.771,58.881,41.882,58.878,37.556z"/>
		<path id="_Path_2" fill="#FFFFFF" d="M52.743,19.35c1.821-2.184,2.726-5.005,2.497-7.85c-2.783,0.295-5.363,1.626-7.222,3.733
			c-1.823,2.08-2.739,4.805-2.553,7.562C48.29,22.825,50.972,21.553,52.743,19.35z"/>
	</g>
</g>
<g>
	<path fill="#FFFFFF" d="M92.675,44.895h-9.396l-2.256,6.662h-3.979l8.898-24.646h4.133l8.899,24.646h-4.045L92.675,44.895z
		 M84.248,41.818h7.447l-3.667-10.81h-0.104L84.248,41.818z"/>
	<path fill="#FFFFFF" d="M118.192,42.573c0,5.581-2.992,9.173-7.502,9.173c-2.331,0.121-4.526-1.1-5.65-3.146h-0.088v8.9h-3.69
		V33.585h3.571v2.993h0.071c1.171-2.038,3.375-3.253,5.721-3.178C115.184,33.4,118.192,37.004,118.192,42.573z M114.397,42.573
		c0-3.643-1.878-6.034-4.75-6.034c-2.816,0-4.71,2.447-4.71,6.034c0,3.616,1.894,6.045,4.71,6.045
		C112.52,48.618,114.397,46.24,114.397,42.573z"/>
	<path fill="#FFFFFF" d="M137.966,42.573c0,5.581-2.987,9.173-7.497,9.173c-2.33,0.121-4.525-1.1-5.656-3.146h-0.081v8.9h-3.69
		V33.585h3.571v2.993h0.064c1.179-2.038,3.375-3.253,5.722-3.178C134.963,33.4,137.966,37.004,137.966,42.573z M134.178,42.573
		c0-3.643-1.878-6.034-4.75-6.034c-2.816,0-4.713,2.447-4.713,6.034c0,3.616,1.896,6.045,4.713,6.045
		C132.3,48.618,134.178,46.24,134.178,42.573L134.178,42.573z"/>
	<path fill="#FFFFFF" d="M151.039,44.689c0.271,2.444,2.641,4.05,5.883,4.05c3.113,0,5.352-1.604,5.352-3.808
		c0-1.914-1.354-3.064-4.541-3.845l-3.2-0.771c-4.521-1.091-6.615-3.209-6.615-6.644c0-4.253,3.699-7.173,8.965-7.173
		c5.207,0,8.777,2.92,8.897,7.173h-3.723c-0.231-2.463-2.262-3.947-5.231-3.947s-5,1.507-5,3.69c0,1.741,1.301,2.769,4.479,3.555
		l2.704,0.666c5.058,1.196,7.166,3.226,7.166,6.827c0,4.616-3.684,7.498-9.524,7.498c-5.457,0-9.15-2.818-9.39-7.271H151.039
		L151.039,44.689z"/>
	<path fill="#FFFFFF" d="M174.133,29.333v4.252h3.406v2.921h-3.406v9.91c0,1.536,0.678,2.254,2.184,2.254
		c0.4-0.008,0.814-0.039,1.213-0.089v2.905c-0.672,0.129-1.36,0.183-2.053,0.171c-3.637,0-5.057-1.364-5.057-4.849V36.506h-2.609
		v-2.921h2.609v-4.252H174.133z"/>
	<path fill="#FFFFFF" d="M179.525,42.573c0-5.657,3.33-9.205,8.516-9.205c5.209,0,8.529,3.547,8.529,9.205
		c0,5.665-3.299,9.204-8.529,9.204C182.824,51.777,179.525,48.238,179.525,42.573z M192.814,42.573c0-3.876-1.781-6.171-4.773-6.171
		c-2.979,0-4.758,2.311-4.758,6.171c0,3.89,1.779,6.166,4.758,6.166C191.033,48.739,192.814,46.463,192.814,42.573L192.814,42.573z"
		/>
	<path fill="#FFFFFF" d="M199.604,33.585h3.531v3.058h0.074c0.486-1.969,2.297-3.32,4.324-3.243
		c0.424-0.001,0.848,0.045,1.268,0.137v3.45c-0.541-0.166-1.094-0.24-1.662-0.225c-2.055-0.08-3.781,1.512-3.867,3.56
		c-0.006,0.194-0.002,0.387,0.025,0.573v10.66h-3.693V33.585L199.604,33.585z"/>
	<path fill="#FFFFFF" d="M225.811,46.277c-0.506,3.261-3.684,5.5-7.744,5.5c-5.231,0-8.475-3.502-8.475-9.121
		c0-5.636,3.268-9.288,8.322-9.288c4.967,0,8.09,3.411,8.09,8.862v1.263h-12.688v0.223c-0.221,2.579,1.67,4.851,4.244,5.074
		c0.201,0.021,0.391,0.021,0.594,0.019c1.789,0.164,3.479-0.865,4.147-2.529h3.509V46.277z M213.34,40.912h8.973
		c0.142-2.38-1.68-4.421-4.065-4.555c-0.115-0.003-0.218-0.004-0.332-0.003c-2.513-0.015-4.565,2.011-4.574,4.524
		C213.34,40.891,213.34,40.906,213.34,40.912z"/>
</g>
</svg>
