<?xml version="1.0" encoding="UTF-8"?>
<svg id="katman_1" xmlns="http://www.w3.org/2000/svg" version="1.1" viewBox="0 0 252 80">
  <!-- Generator: Adobe Illustrator 29.4.0, SVG Export Plug-In . SVG Version: 2.1.0 Build 152)  -->
  <defs>
    <style>
      .st0 {
        fill: #a5a2a5;
      }

      .st1 {
        fill: #fff;
      }

      .st2 {
        fill: #ff6363;
      }

      .st3 {
        fill: #58555c;
      }
    </style>
  </defs>
  <rect class="st1" width="252" height="80"/>
  <path class="st2" d="M80.95,38.45c-.3-.87-.93-1.59-1.76-1.99l-3.13-1.53c-.83-.41-1.78-.47-2.66-.16-.87.3-1.59.93-1.99,1.76l-9.28,19.02c-.61,1.24-.7,2.68-.25,3.99l1.13,3.29c.31.91,1.3,1.39,2.21,1.08l3.29-1.13c1.32-.45,2.38-1.39,2.99-2.65l9.28-19.02c.41-.83.47-1.78.16-2.66h0Z"/>
  <path class="st0" d="M68.28,35c.81-1.66,2.24-2.93,3.99-3.53.72-.24,1.48-.36,2.25-.35v-9.9c0-2.88-2.34-5.22-5.22-5.22h-27.83c-2.88,0-5.22,2.34-5.22,5.22v34.78c0,2.88,2.34,5.22,5.22,5.22h17.3l-.19-.55c-.76-2.18-.61-4.58.41-6.65l9.28-19.02h.01ZM43.21,26.44h20.87c.96,0,1.74.78,1.74,1.74s-.78,1.74-1.74,1.74h-20.87c-.96,0-1.74-.78-1.74-1.74s.78-1.74,1.74-1.74ZM43.21,33.39h19.13c.96,0,1.74.78,1.74,1.74s-.78,1.74-1.74,1.74h-19.13c-.96,0-1.74-.78-1.74-1.74s.78-1.74,1.74-1.74ZM55.39,50.78h-12.17c-.96,0-1.74-.78-1.74-1.74s.78-1.74,1.74-1.74h12.17c.96,0,1.74.78,1.74,1.74s-.78,1.74-1.74,1.74ZM43.21,43.83c-.96,0-1.74-.78-1.74-1.74s.78-1.74,1.74-1.74h15.65c.96,0,1.74.78,1.74,1.74s-.78,1.74-1.74,1.74h-15.65Z"/>
  <g>
    <path class="st3" d="M98.06,35.48V14.08c0-.55.45-1,1-1h4.19c.55,0,1,.45,1,1v16.22c0,.55.45,1,1,1h6.86c.55,0,1,.45,1,1v3.18c0,.55-.45,1-1,1h-13.05c-.55,0-1-.45-1-1Z"/>
    <path class="st3" d="M116.42,35.48V14.08c0-.55.45-1,1-1h13.12c.55,0,1,.45,1,1v3.18c0,.55-.45,1-1,1h-6.93c-.55,0-1,.45-1,1v1.67c0,.55.45,1,1,1h5.63c.55,0,1,.45,1,1v3.18c0,.55-.45,1-1,1h-5.63c-.55,0-1,.45-1,1v2.18c0,.55.45,1,1,1h7.29c.55,0,1,.45,1,1v3.18c0,.55-.45,1-1,1h-13.48c-.55,0-1-.45-1-1h0Z"/>
    <path class="st3" d="M140.4,35.76l-6.19-21.4c-.18-.64.29-1.28.96-1.28h4.42c.47,0,.87.32.98.78l2.13,9.44c.19.82.38,1.64.56,2.47s.37,1.65.56,2.47.4,1.64.61,2.48h.14c.22-.84.41-1.67.59-2.48.18-.82.37-1.64.56-2.47s.38-1.65.58-2.47l2.33-9.46c.11-.45.51-.76.97-.76h4.21c.67,0,1.15.65.96,1.29l-6.45,21.4c-.13.42-.52.71-.96.71h-5.99c-.45,0-.84-.29-.96-.72h0Z"/>
    <path class="st3" d="M157.6,35.48V14.08c0-.55.45-1,1-1h13.12c.55,0,1,.45,1,1v3.18c0,.55-.45,1-1,1h-6.93c-.55,0-1,.45-1,1v1.67c0,.55.45,1,1,1h5.63c.55,0,1,.45,1,1v3.18c0,.55-.45,1-1,1h-5.63c-.55,0-1,.45-1,1v2.18c0,.55.45,1,1,1h7.29c.55,0,1,.45,1,1v3.18c0,.55-.45,1-1,1h-13.48c-.55,0-1-.45-1-1h0Z"/>
    <path class="st3" d="M177.41,35.48V14.08c0-.55.45-1,1-1h4.19c.55,0,1,.45,1,1v16.22c0,.55.45,1,1,1h6.86c.55,0,1,.45,1,1v3.18c0,.55-.45,1-1,1h-13.05c-.55,0-1-.45-1-1Z"/>
    <path class="st3" d="M98.06,65.48v-21.4c0-.55.45-1,1-1h13.12c.55,0,1,.45,1,1v3.18c0,.55-.45,1-1,1h-6.93c-.55,0-1,.45-1,1v1.67c0,.55.45,1,1,1h5.63c.55,0,1,.45,1,1v3.18c0,.55-.45,1-1,1h-5.63c-.55,0-1,.45-1,1v2.18c0,.55.45,1,1,1h7.29c.55,0,1,.45,1,1v3.18c0,.55-.45,1-1,1h-13.48c-.55,0-1-.45-1-1h0Z"/>
    <path class="st3" d="M117.87,65.48v-21.4c0-.55.45-1,1-1h5.91c2.38,0,4.47.39,6.28,1.17s3.22,2.02,4.23,3.73c1.01,1.7,1.51,3.94,1.51,6.7s-.5,5.01-1.51,6.75c-1.01,1.74-2.39,3.02-4.14,3.83-1.75.82-3.76,1.22-6.01,1.22h-6.27c-.55,0-1-.45-1-1ZM124.07,61.52h.36c1.13,0,2.15-.19,3.06-.58s1.64-1.07,2.18-2.05.81-2.39.81-4.21-.27-3.21-.81-4.16-1.27-1.6-2.18-1.94c-.91-.35-1.93-.52-3.06-.52h-.36v13.46Z"/>
    <path class="st3" d="M140.73,65.48v-21.4c0-.55.45-1,1-1h4.19c.55,0,1,.45,1,1v21.4c0,.55-.45,1-1,1h-4.19c-.55,0-1-.45-1-1Z"/>
    <path class="st3" d="M156.16,65.48v-16.22c0-.55-.45-1-1-1h-4.19c-.55,0-1-.45-1-1v-3.18c0-.55.45-1,1-1h16.58c.55,0,1,.45,1,1v3.18c0,.55-.45,1-1,1h-4.19c-.55,0-1,.45-1,1v16.22c0,.55-.45,1-1,1h-4.19c-.55,0-1-.45-1-1h0Z"/>
    <path class="st3" d="M181.44,66.92c-2.16,0-4.06-.49-5.69-1.46s-2.9-2.37-3.82-4.19-1.37-4.02-1.37-6.59.46-4.75,1.37-6.53,2.18-3.15,3.82-4.09c1.63-.94,3.53-1.4,5.69-1.4s4.06.47,5.69,1.4c1.63.94,2.9,2.3,3.82,4.09s1.37,3.97,1.37,6.53-.46,4.76-1.37,6.59-2.18,3.22-3.82,4.19c-1.63.97-3.53,1.46-5.69,1.46ZM181.44,61.59c.94,0,1.75-.28,2.43-.85.68-.56,1.21-1.36,1.57-2.39s.54-2.26.54-3.67-.18-2.62-.54-3.62-.88-1.76-1.57-2.29c-.68-.53-1.49-.79-2.43-.79s-1.75.26-2.43.79c-.68.53-1.21,1.29-1.57,2.29s-.54,2.2-.54,3.62.18,2.64.54,3.67.88,1.83,1.57,2.39c.68.56,1.49.85,2.43.85Z"/>
    <path class="st3" d="M211.12,58.21c-.25-.44-.12-1.01.29-1.3.67-.47,1.25-1.04,1.74-1.7.86-1.18,1.3-2.7,1.3-4.58s-.44-3.46-1.3-4.57c-.86-1.1-2-1.88-3.42-2.32s-2.96-.67-4.64-.67h-7.86c-.55,0-1,.45-1,1v21.4c0,.55.45,1,1,1h4.19c.55,0,1-.45,1-1v-5.84c0-.55.45-1,1-1h.48c.55,0,1.06.31,1.31.8l3.34,6.49c.17.33.51.54.89.54h4.59c.76,0,1.25-.82.87-1.49l-3.79-6.78v.02h.01ZM202.42,48.98c0-.55.45-1,1-1h1.23c1.23,0,2.16.19,2.79.58.64.38.96,1.08.96,2.08s-.32,1.78-.96,2.31c-.63.53-1.56.79-2.79.79h-1.23c-.55,0-1-.45-1-1v-3.76Z"/>
  </g>
</svg>