<?xml version="1.0" encoding="utf-8"?>
<!-- Generator: Adobe Illustrator 16.0.0, SVG Export Plug-In . SVG Version: 6.00 Build 0)  -->
<!DOCTYPE svg PUBLIC "-//W3C//DTD SVG 1.1//EN" "http://www.w3.org/Graphics/SVG/1.1/DTD/svg11.dtd">
<svg version="1.1" id="katman_1" xmlns="http://www.w3.org/2000/svg" xmlns:xlink="http://www.w3.org/1999/xlink" x="0px" y="0px"
	 width="252px" height="80px" viewBox="0 0 252 80" enable-background="new 0 0 252 80" xml:space="preserve">
<rect fill="#FFFFFF" width="252" height="80"/>
<g>
	<path id="path37" fill="#EA4335" d="M38.953,38.924l-19.866,21.09c0,0.004,0.001,0.006,0.002,0.01
		C19.697,62.314,21.79,64,24.271,64c0.99,0,1.925-0.266,2.723-0.736l0.063-0.033l22.365-12.912L38.953,38.924"/>
	<path id="path39" fill="#FBBC04" d="M59.058,35.332l-0.021-0.012l-9.657-5.598l-10.877,9.684l10.915,10.912l9.606-5.541
		c1.688-0.914,2.826-2.682,2.826-4.732C61.851,38.011,60.723,36.246,59.058,35.332"/>
	<path id="path41" fill="#4285F4" d="M19.084,19.987c-0.122,0.441-0.184,0.903-0.184,1.381v37.261c0,0.486,0.062,0.951,0.185,1.385
		L39.64,39.461L19.084,19.987"/>
	<path id="path43" fill="#34A853" d="M39.101,40l10.286-10.281L27.043,16.765C26.235,16.279,25.282,16,24.271,16
		c-2.48,0-4.575,1.687-5.185,3.979c-0.001,0.005-0.001,0.007-0.001,0.008L39.101,40"/>
</g>
<path id="path35" fill="#5F6368" d="M197.62,51.592h3.505V28.097h-3.505V51.592z M229.198,36.561l-4.015,10.186h-0.121
	l-4.176-10.186h-3.779l6.265,14.231l-3.567,7.925h3.656l9.639-22.156H229.198z M209.314,48.917c-1.148,0-2.75-0.569-2.75-1.985
	c0-1.813,1.996-2.516,3.72-2.516c1.536,0,2.261,0.334,3.196,0.793C213.215,47.378,211.342,48.917,209.314,48.917L209.314,48.917z
	 M209.732,36.046c-2.535,0-5.164,1.122-6.254,3.597l3.115,1.298c0.664-1.298,1.906-1.721,3.199-1.721
	c1.814,0,3.657,1.089,3.688,3.025v0.239c-0.631-0.36-1.987-0.903-3.656-0.903c-3.352,0-6.766,1.84-6.766,5.289
	c0,3.139,2.752,5.164,5.828,5.164c2.361,0,3.657-1.06,4.471-2.291h0.123v1.813h3.395v-9.012
	C216.875,38.375,213.756,36.046,209.732,36.046L209.732,36.046z M188.066,39.421h-4.991V31.37h4.991
	c2.621,0,4.113,2.167,4.113,4.022C192.182,37.216,190.688,39.421,188.066,39.421z M187.977,28.097h-8.404v23.495h3.504v-8.902h4.9
	c3.883,0,7.711-2.813,7.711-7.296C195.688,30.917,191.857,28.098,187.977,28.097L187.977,28.097z M142.16,48.93
	c-2.426,0-4.454-2.029-4.454-4.818c0-2.815,2.028-4.874,4.454-4.874c2.388,0,4.261,2.057,4.261,4.874
	C146.421,46.9,144.548,48.93,142.16,48.93z M146.188,37.876h-0.123c-0.787-0.938-2.305-1.785-4.211-1.785
	c-3.996,0-7.658,3.514-7.658,8.021c0,4.482,3.662,7.962,7.658,7.962c1.906,0,3.424-0.847,4.211-1.815h0.123v1.149
	c0,3.063-1.64,4.692-4.271,4.692c-2.148,0-3.48-1.541-4.025-2.845l-3.061,1.271c0.882,2.123,3.21,4.725,7.086,4.725
	c4.12,0,7.598-2.427,7.598-8.323V36.575h-3.326V37.876L146.188,37.876z M151.938,51.592h3.508V28.096h-3.508V51.592z M160.626,43.84
	c-0.092-3.09,2.39-4.663,4.183-4.663c1.389,0,2.569,0.698,2.969,1.696L160.626,43.84z M171.527,41.175
	c-0.672-1.784-2.7-5.084-6.842-5.084c-4.121,0-7.547,3.239-7.547,7.991c0,4.48,3.396,7.99,7.935,7.99
	c3.659,0,5.782-2.234,6.659-3.54l-2.723-1.815c-0.908,1.336-2.143,2.213-3.938,2.213c-1.783,0-3.059-0.824-3.873-2.427l10.686-4.421
	L171.527,41.175z M86.38,38.544v3.39h8.113c-0.24,1.906-0.878,3.295-1.847,4.265c-1.183,1.183-3.029,2.487-6.267,2.487
	c-4.997,0-8.902-4.028-8.902-9.023c0-4.992,3.905-9.021,8.902-9.021c2.692,0,4.66,1.061,6.114,2.422l2.392-2.392
	c-2.025-1.937-4.722-3.421-8.506-3.421c-6.843,0-12.595,5.573-12.595,12.411c0,6.842,5.752,12.411,12.595,12.411
	c3.691,0,6.48-1.205,8.658-3.479c2.237-2.243,2.938-5.39,2.938-7.936c0-0.783-0.062-1.512-0.184-2.114L86.38,38.544L86.38,38.544z
	 M107.198,48.93c-2.423,0-4.508-1.998-4.508-4.848c0-2.877,2.085-4.844,4.508-4.844c2.422,0,4.512,1.967,4.512,4.844
	C111.71,46.932,109.62,48.93,107.198,48.93z M107.198,36.091c-4.421,0-8.021,3.361-8.021,7.991c0,4.604,3.6,7.99,8.021,7.99
	c4.421,0,8.025-3.387,8.025-7.99C115.224,39.452,111.619,36.091,107.198,36.091z M124.702,48.93c-2.419,0-4.511-1.998-4.511-4.848
	c0-2.877,2.092-4.844,4.511-4.844c2.425,0,4.511,1.967,4.511,4.844C129.213,46.932,127.127,48.93,124.702,48.93z M124.702,36.091
	c-4.419,0-8.022,3.361-8.022,7.991c0,4.604,3.604,7.99,8.022,7.99c4.424,0,8.022-3.387,8.022-7.99
	C132.725,39.452,129.126,36.091,124.702,36.091"/>
</svg>
