<?xml version="1.0" encoding="utf-8"?>
<!-- Generator: Adobe Illustrator 16.0.0, SVG Export Plug-In . SVG Version: 6.00 Build 0)  -->
<!DOCTYPE svg PUBLIC "-//W3C//DTD SVG 1.1//EN" "http://www.w3.org/Graphics/SVG/1.1/DTD/svg11.dtd">
<svg version="1.1" id="katman_1" xmlns="http://www.w3.org/2000/svg" xmlns:xlink="http://www.w3.org/1999/xlink" x="0px" y="0px"
	 width="252px" height="80px" viewBox="0 0 252 80" enable-background="new 0 0 252 80" xml:space="preserve">
<rect fill="#F68B32" width="252" height="80"/>
<g>
	<g id="g3753" transform="translate(80.9529,352.0929)">
		<path id="path3755" fill="#FFFFFF" d="M-5.05-312.222c0.693-1.953,2.258-2.725,3.835-2.725c2.221,0,3.479,1.408,3.932,2.725H-5.05
			z M-1.281-318.726c-4.632,0-8.045,4.097-8.045,8.139c0,4.202,3.491,8.199,8.079,8.199c3.353,0,6.1-1.877,7.285-4.208L2.387-307.9
			c-0.954,1.195-2.12,1.752-3.664,1.752c-1.576,0-3.4-1.024-3.831-2.992h9.07c1.953,0,2.937-0.395,2.937-1.848
			C6.835-314.177,4.051-318.726-1.281-318.726 M33.852-306.385c-2.334,0-4.121-1.877-4.121-4.179c0-2.294,1.787-4.156,4.121-4.156
			c2.344,0,4.07,1.847,4.07,4.156C37.922-308.232,36.196-306.385,33.852-306.385 M37.906-317.122h-0.083
			c-0.356-0.52-2.007-1.604-4.111-1.604c-4.421,0-8.131,3.673-8.131,8.165c0,4.512,3.709,8.175,8.131,8.175
			c2.104,0,3.755-1.091,4.111-1.604h0.083v1.141h4.466v-21.667h-4.466V-317.122z M17.042-318.726c-1.681,0-3.176,0.688-4.088,1.781
			h-0.047v-1.302h-4.48v15.376h4.48v-7.479c0-2.991,1.621-4.277,3.469-4.277c1.276,0,3.225,0.813,3.225,3.824v7.933h4.475v-8.239
			C24.076-316.295,20.509-318.726,17.042-318.726 M-12.711-322.49h-4.465v4.242h-2.982v3.619h2.982v11.757h4.465v-11.757h3.023
			v-3.619h-3.023V-322.49z M52.086-306.414c-2.241,0-4.059-1.848-4.059-4.129c0-2.284,1.84-4.135,4.059-4.135
			c2.24,0,4.058,1.851,4.058,4.135C56.144-308.262,54.326-306.414,52.086-306.414 M52.086-318.726c-4.542,0-8.208,3.673-8.208,8.165
			c0,4.512,3.666,8.175,8.208,8.175s8.206-3.663,8.206-8.175C60.292-315.053,56.628-318.726,52.086-318.726 M-52.257-311.139
			l-9.067-11.924c-0.938-1.226-1.824-1.604-2.544-1.604c-1.716,0-2.612,1.029-2.612,2.513v19.282h4.797v-13.388l9.066,11.935
			c0.937,1.241,1.83,1.604,2.551,1.604c1.713,0,2.61-1.029,2.61-2.513v-19.287h-4.8L-52.257-311.139L-52.257-311.139z
			 M-44.042-302.843h4.473v-15.405h-4.473V-302.843z M-41.807-325.49c-1.442,0-2.609,1.171-2.609,2.61s1.167,2.619,2.609,2.619
			c1.443,0,2.612-1.18,2.612-2.619S-40.364-325.49-41.807-325.49 M-27.997-318.726c-1.671,0-3.167,0.688-4.085,1.781h-0.045v-1.302
			h-4.472v15.376h4.472v-7.479c0-2.991,1.624-4.277,3.473-4.277c1.279,0,3.227,0.813,3.227,3.824v7.933h4.479v-8.239
			C-20.948-316.295-24.523-318.726-27.997-318.726"/>
	</g>
	<g id="g3757" transform="translate(123.7715,353.6232)">
		<path id="path3759" fill="#FFFFFF" d="M53.63-317.38c-2.153-0.717-3.796-1.247-3.796-2.761c0-1.013,0.889-1.953,2.523-1.953
			c1.666,0,2.648,0.864,3.453,1.529l3.692-2.574c-1.573-1.938-4.239-3.558-7.084-3.558c-3.907,0-7.276,2.876-7.276,6.623
			c0,2.804,1.885,5.444,5.821,6.747c2.457,0.824,4.011,1.325,4.011,2.899c0,1.09-1.103,2.061-2.437,2.061
			c-1.656,0-2.998-1.092-4.036-2.029l-3.927,2.738c1.952,2.258,5.028,3.922,7.843,3.922c4.359,0,7.33-3.33,7.33-6.781
			C59.749-313.215,58.262-315.831,53.63-317.38 M105.479-307.915c-2.338,0-4.064-1.847-4.064-4.178c0-2.31,1.727-4.157,4.064-4.157
			c2.34,0,4.129,1.871,4.129,4.157C109.605-309.792,107.816-307.915,105.479-307.915 M105.628-320.26
			c-2.108,0-3.76,1.088-4.119,1.618h-0.065v-1.136h-4.479v21.655h4.479v-7.398h0.065c0.359,0.524,2.011,1.604,4.119,1.604
			c4.415,0,8.125-3.663,8.125-8.175C113.753-316.572,110.043-320.26,105.628-320.26 M70.498-320.247
			c-1.666,0-3.173,0.681-4.085,1.787h-0.041v-7.585h-4.476v21.672h4.476v-7.507c0-2.979,1.614-4.278,3.462-4.278
			c1.285,0,3.236,0.817,3.236,3.841v7.916h4.48v-8.237C77.553-317.825,73.966-320.247,70.498-320.247 M42.577-326.803
			c-0.029-0.031-0.073-0.031-0.091,0.015l-3.301,4.554c-0.021,0.019-0.021,0.049,0,0.064c0.027,0.016,0.03,0.016,0.061,0.012
			l4.876-2.813c0.03-0.023,0.058-0.075,0.024-0.106L42.577-326.803z M33.917-318.249c1.242,0,2.24,0.455,3.147,1.302l-8.084,4.642
			C28.387-315.383,30.77-318.249,33.917-318.249 M34.066-307.884c-1.24,0-2.658-0.517-3.379-1.424l8.982-5.216
			c1.938-1.121,2.816-2.089,1.997-3.528c-1.302-2.034-4.542-4.183-8.054-4.183c-4.967,0-9.024,4.395-9.024,9.273
			c0,5.258,4.593,9.285,9.63,9.285c4.663,0,8.818-3.36,9.055-8.205h-4.633C38.43-309.701,36.611-307.884,34.066-307.884
			 M37.705-323.23l2.996-4.754c0.027-0.045,0.015-0.091-0.032-0.106l-2.18-0.789c-0.03-0.014-0.091,0.011-0.091,0.047l-0.764,5.572
			c0,0.03,0.006,0.045,0.035,0.061C37.673-323.2,37.702-323.2,37.705-323.23 M87.255-307.944c-2.226,0-4.046-1.849-4.046-4.123
			c0-2.291,1.82-4.152,4.046-4.152c2.229,0,4.046,1.862,4.046,4.152C91.301-309.792,89.482-307.944,87.255-307.944 M87.255-320.26
			c-4.53,0-8.216,3.677-8.216,8.167c0,4.512,3.686,8.175,8.216,8.175c4.532,0,8.212-3.663,8.212-8.175
			C95.467-316.583,91.787-320.26,87.255-320.26 M35.825-323.397c0.028,0,0.055-0.017,0.059-0.045l0.396-5.617
			c0-0.03-0.029-0.076-0.09-0.061l-2.274,0.318c-0.058,0.001-0.088,0.045-0.058,0.091l1.927,5.284
			C35.793-323.411,35.814-323.397,35.825-323.397"/>
	</g>
</g>
</svg>
