<?xml version="1.0" encoding="UTF-8"?>
<svg id="katman_1" xmlns="http://www.w3.org/2000/svg" version="1.1" viewBox="0 0 252 80">
  <!-- Generator: Adobe Illustrator 29.4.0, SVG Export Plug-In . SVG Version: 2.1.0 Build 152)  -->
  <defs>
    <style>
      .st0 {
        fill: #0061fe;
      }

      .st1 {
        fill: #f7f5f2;
      }
    </style>
  </defs>
  <rect class="st0" width="252" height="80"/>
  <path class="st1" d="M41.84,25.02l-14.14,9.02,14.14,9.02-14.14,9.02-14.14-9.07,14.14-9.02-14.14-8.97,14.14-9.02,14.14,9.02ZM27.63,54.98l14.14-9.02,14.14,9.02-14.14,9.02-14.14-9.02ZM41.84,43.01l14.14-9.02-14.14-8.97,14.07-9.02,14.14,9.02-14.14,9.02,14.14,9.02-14.14,9.02-14.07-9.07Z"/>
  <g>
    <path class="st1" d="M88.53,54h-6.48v-25.81h10.22c7.2,0,10.47,3.53,10.47,9.04s-3.24,9.18-10.37,9.14h-3.85v7.63ZM88.53,40.79h3.67c2.45,0,3.96-1.19,3.96-3.56,0-2.23-1.4-3.49-4-3.49h-3.64v7.06Z"/>
    <path class="st1" d="M104.16,33.12h5.26l.9,4.28c.68-3.28,2.77-4.57,6.55-4.57h1.19v6.88h-2.45c-1.26,0-2.23.18-2.95.5-1.37.61-1.8,2.02-1.8,4.54v9.25h-6.7v-20.88Z"/>
    <path class="st1" d="M129.35,54.54c-7.27,0-10.62-4-10.62-10.47v-.61c0-2.27.43-4.17,1.33-5.76,1.8-3.24,5.04-5,9.4-5,2.45,0,4.46.47,6.01,1.44,3.1,1.94,4.5,5.18,4.5,9v2.34h-14.72c.32,2.59,1.73,3.89,4.28,3.89,1.84,0,2.88-.79,3.35-1.98h6.95c-1.15,4.39-4.36,7.16-10.47,7.16ZM125.25,41.37h8.24c-.29-2.38-1.51-3.71-3.96-3.71s-3.85,1.19-4.28,3.71Z"/>
    <path class="st1" d="M140.6,47.02h6.77c.43,1.69,1.69,2.56,3.85,2.56s2.95-.68,2.95-1.84c0-.47-.22-.83-.68-1.08-.86-.47-2.45-.68-4.17-.86-1.8-.25-3.71-.58-5.26-1.44-1.58-.83-2.59-2.27-2.59-4.79,0-4.1,3.17-6.91,9.11-6.91,6.33,0,9.11,2.77,9.72,6.98h-6.44c-.29-1.51-1.4-2.23-3.35-2.23s-2.74.76-2.74,1.76c0,1.3,1.76,1.51,4.86,1.91,1.84.25,3.74.61,5.33,1.48,1.55.86,2.59,2.3,2.59,4.75,0,1.4-.36,2.63-1.04,3.74-1.44,2.16-4.25,3.53-8.6,3.53-6.26,0-9.61-2.74-10.29-7.56Z"/>
    <path class="st1" d="M161.08,47.02h6.77c.43,1.69,1.69,2.56,3.85,2.56s2.95-.68,2.95-1.84c0-.47-.22-.83-.68-1.08-.86-.47-2.45-.68-4.17-.86-1.8-.25-3.71-.58-5.26-1.44-1.58-.83-2.59-2.27-2.59-4.79,0-4.1,3.17-6.91,9.11-6.91,6.33,0,9.11,2.77,9.72,6.98h-6.44c-.29-1.51-1.4-2.23-3.35-2.23s-2.74.76-2.74,1.76c0,1.3,1.76,1.51,4.86,1.91,1.84.25,3.74.61,5.33,1.48,1.55.86,2.59,2.3,2.59,4.75,0,1.4-.36,2.63-1.04,3.74-1.44,2.16-4.25,3.53-8.6,3.53-6.26,0-9.61-2.74-10.29-7.56Z"/>
    <path class="st1" d="M198.8,46.52v7.49h-6.48v-25.81h6.48v9.9l7.92-9.9h7.78l-7.85,9.75,8.17,16.05h-7.31l-5.58-11.41-3.13,3.92Z"/>
    <path class="st1" d="M215.41,28.7c0-2.45,1.26-3.28,3.92-3.28s3.92.83,3.92,3.28-1.22,3.24-3.92,3.24c-2.88,0-3.92-.79-3.92-3.24ZM216.71,33.48c.83.11,1.91.18,2.63.18.4,0,.79-.04,1.26-.07.97-.04,1.87-.22,2.12-.36v20.77h-6.8v-20.73c.14.11.36.18.79.22Z"/>
    <path class="st1" d="M235.12,54c-2.12,0-3.71-.29-4.86-.83-2.27-1.15-2.99-3.6-2.99-7.96v-6.3h-3.53v-5.44c.83,0,1.33-.07,2.05-.22,1.37-.18,1.87-.72,2.05-2.52.11-.86.18-1.98.22-2.84h5.4v5.22h4.97v5.8h-4.97v5c0,1.19.11,2.09.25,2.66.4,1.12,1.3,1.33,3.38,1.33h1.33v6.08h-3.31Z"/>
  </g>
</svg>