<?xml version="1.0" encoding="UTF-8"?>
<svg id="katman_1" xmlns="http://www.w3.org/2000/svg" version="1.1" viewBox="0 0 252 80">
  <!-- Generator: Adobe Illustrator 29.6.1, SVG Export Plug-In . SVG Version: 2.1.1 Build 9)  -->
  <defs>
    <style>
      .st0 {
        fill: #fff;
      }

      .st1 {
        fill: #1ed760;
      }
    </style>
  </defs>
  <rect class="st1" width="252" height="80"/>
  <path class="st0" d="M63.22,16.02c-13.24-.53-24.41,9.78-24.93,23.03-.53,13.25,9.79,24.41,23.03,24.93,13.24.53,24.41-9.78,24.93-23.03.53-13.24-9.78-24.41-23.03-24.93ZM73.35,51.18c-.3.53-.88.79-1.45.71-.17-.02-.35-.08-.51-.17-3.17-1.81-6.63-2.98-10.27-3.49-3.65-.51-7.29-.34-10.84.53-.77.19-1.54-.29-1.73-1.05-.19-.77.29-1.54,1.05-1.73,3.9-.95,7.91-1.14,11.92-.58,4.01.56,7.81,1.86,11.29,3.84.69.39.93,1.27.54,1.95h0ZM76.5,44.88c-.49.9-1.62,1.24-2.52.75-3.71-2.01-7.73-3.33-11.94-3.92-4.21-.59-8.44-.43-12.56.47-.22.05-.45.06-.66.03-.75-.11-1.39-.66-1.56-1.45-.22-1,.41-2,1.42-2.22,4.56-1,9.23-1.18,13.88-.53,4.65.65,9.09,2.11,13.2,4.33.9.49,1.24,1.62.75,2.52v.02ZM80,37.78c-.46.89-1.42,1.34-2.35,1.21-.25-.04-.5-.11-.74-.24-4.32-2.25-8.98-3.73-13.84-4.42-4.86-.68-9.74-.54-14.52.43-1.24.25-2.45-.55-2.7-1.79-.25-1.24.55-2.45,1.79-2.7,5.29-1.07,10.69-1.23,16.07-.48,5.38.76,10.53,2.4,15.31,4.89,1.12.58,1.56,1.97.98,3.09h0ZM107.22,37.7l-1.66-.5c-3.34-.99-4.28-1.36-4.28-2.71,0-1.27,1.41-2.65,4.53-2.65s5.68,1.5,7.02,2.62c.23.19.48.11.48-.19v-4.4c0-.19-.05-.3-.19-.41-1.66-1.24-4.55-2.14-7.45-2.14-5.91,0-9.44,3.36-9.44,7.18,0,4.32,2.74,5.82,7.25,7.09l1.95.55c3.38.96,4,1.8,4,3.11,0,2.19-1.66,2.87-4.14,2.87-3.11,0-6.92-1.82-8.7-4.05-.16-.19-.35-.11-.35.12v4.85c0,.19.02.28.16.44,1.49,1.63,5.04,3.06,9.18,3.06,5.09,0,8.91-2.97,8.91-7.57,0-3.57-2.1-5.73-7.25-7.27h-.02ZM127.43,34.19c-3.36,0-5.31,2.05-6.44,4.1v-3.54c0-.16-.09-.25-.25-.25h-4.44c-.16,0-.25.09-.25.25v22.69c0,.16.09.25.25.25h4.44c.16,0,.25-.09.25-.25v-9.07c1.13,2.05,3.04,4.07,6.47,4.07,4.53,0,7.78-3.91,7.78-9.16s-3.29-9.09-7.82-9.09h0ZM126.13,48.16c-2.37,0-4.42-2.33-5.24-4.92.81-2.72,2.69-4.81,5.24-4.81s4.1,1.84,4.1,4.85-1.68,4.88-4.1,4.88ZM207.39,34.5h-4.53c-.16,0-.23.04-.3.19l-4.56,10.97-4.58-10.97c-.07-.16-.14-.19-.3-.19h-7.32v-1.17c0-1.91,1.29-2.79,2.95-2.79.99,0,2.07.51,2.83.97.18.11.3-.02.23-.18l-1.59-3.8c-.05-.12-.12-.19-.25-.27-.78-.41-2.05-.76-3.29-.76-3.75,0-5.91,2.87-5.91,6.51v1.49h-3.01c-.16,0-.25.09-.25.25v3.54c0,.16.09.25.25.25h3.01v13.34c0,.16.09.25.25.25h4.53c.16,0,.25-.09.25-.25v-13.34h3.87l5.62,12.22-3.02,6.65c-.09.19.02.28.19.28h4.83c.16,0,.23-.04.3-.19l9.99-22.71c.07-.16-.02-.28-.19-.28h0ZM146.29,34.08c-5.73,0-9.67,4.05-9.67,9.23s3.94,9.23,9.67,9.23,9.69-4.09,9.69-9.23-3.98-9.23-9.69-9.23ZM146.31,48.21c-2.74,0-4.69-2.09-4.69-4.9s1.95-4.9,4.69-4.9,4.67,2.09,4.67,4.9-1.95,4.9-4.67,4.9ZM213.39,35.54c-.23-.4-.56-.72-.97-.94-.41-.23-.87-.34-1.39-.34s-.97.11-1.39.34c-.41.23-.73.54-.97.94-.23.4-.35.86-.35,1.36s.12.95.35,1.35c.23.4.56.72.97.94.41.23.87.34,1.39.34s.97-.11,1.39-.34.73-.54.97-.94c.23-.4.35-.85.35-1.35s-.12-.96-.35-1.36ZM212.96,38.04c-.19.33-.45.59-.79.78s-.72.28-1.14.28-.82-.09-1.15-.28c-.34-.19-.6-.45-.78-.78-.19-.33-.28-.71-.28-1.13s.09-.8.28-1.13.45-.59.78-.77c.34-.19.72-.28,1.15-.28s.81.09,1.14.28c.34.19.6.45.79.78.19.33.28.71.28,1.13s-.09.79-.28,1.12ZM173.29,26.47c-1.7,0-2.94,1.2-2.94,2.79s1.24,2.79,2.94,2.79,2.97-1.2,2.97-2.79-1.24-2.79-2.97-2.79ZM211.95,36.86c.18-.13.27-.31.27-.52s-.09-.4-.26-.53c-.18-.13-.43-.2-.76-.2h-1.18v2.46h.57v-.98h.31l.75.98h.7l-.82-1.04c.17-.03.32-.09.43-.17h-.01ZM211.1,36.64h-.52v-.6h.54c.16,0,.28.02.37.07s.13.13.13.23-.04.17-.13.22c-.09.05-.22.07-.38.07h0ZM175.58,34.5h-4.53c-.16,0-.25.09-.25.25v17.12c0,.16.09.25.25.25h4.53c.16,0,.25-.09.25-.25v-17.12c0-.16-.09-.25-.25-.25ZM168.91,47.71c-.51.28-1.18.51-2.1.51-1.45,0-2.37-.85-2.37-2.72v-6.97h4.42c.16,0,.25-.09.25-.25v-3.54c0-.16-.09-.25-.25-.25h-4.42v-4.62c0-.19-.12-.3-.3-.16l-7.91,6.23c-.11.09-.14.18-.14.32v2.02c0,.16.09.25.25.25h3.08v7.71c0,4.17,2.41,6.12,5.84,6.12,1.49,0,2.92-.39,3.77-.88.12-.07.14-.14.14-.27v-3.36c0-.18-.09-.23-.25-.14h0Z"/>
</svg>