<?xml version="1.0" encoding="utf-8"?>
<!-- Generator: Adobe Illustrator 16.0.0, SVG Export Plug-In . SVG Version: 6.00 Build 0)  -->
<!DOCTYPE svg PUBLIC "-//W3C//DTD SVG 1.1//EN" "http://www.w3.org/Graphics/SVG/1.1/DTD/svg11.dtd">
<svg version="1.1" id="katman_1" xmlns="http://www.w3.org/2000/svg" xmlns:xlink="http://www.w3.org/1999/xlink" x="0px" y="0px"
	 width="252px" height="80px" viewBox="0 0 252 80" enable-background="new 0 0 252 80" xml:space="preserve">
<rect fill="#171D25" width="252" height="80"/>
<g>
	<path fill="#FFFFFF" d="M54.063,16c-12.606,0-22.942,9.717-23.926,22.073l12.866,5.315c1.094-0.74,2.413-1.174,3.819-1.174
		c0.136,0,0.259,0,0.382,0.006l5.723-8.288c0-0.039-0.001-0.085-0.001-0.117c0-4.99,4.063-9.055,9.055-9.055
		c4.989,0,9.054,4.065,9.054,9.055c0,4.989-4.064,9.056-9.054,9.056c-0.068,0-0.134-0.002-0.205-0.006l-8.157,5.823
		c0.001,0.101,0.001,0.205,0.001,0.319c0,3.744-3.047,6.79-6.797,6.79c-3.28,0-6.029-2.35-6.655-5.463l-9.198-3.797
		C33.816,56.618,43.074,64,54.063,64c13.247,0,24.001-10.756,24.001-23.999C78.064,26.747,67.31,16,54.063,16"/>
	<path fill="#FFFFFF" d="M45.183,52.411l-2.952-1.218c0.524,1.096,1.43,2,2.624,2.512c2.603,1.083,5.592-0.159,6.676-2.762
		c0.521-1.254,0.521-2.631,0.005-3.889c-0.516-1.267-1.5-2.242-2.753-2.775c-1.251-0.519-2.588-0.494-3.763-0.049l3.047,1.259
		c1.922,0.797,2.819,2.989,2.021,4.896C49.293,52.307,47.098,53.209,45.183,52.411"/>
	<path fill="#FFFFFF" d="M68.011,33.815c0-3.323-2.707-6.037-6.03-6.037c-3.323,0-6.037,2.714-6.037,6.037
		c0,3.324,2.714,6.032,6.037,6.032C65.304,39.847,68.011,37.138,68.011,33.815 M57.462,33.8c0-2.501,2.021-4.522,4.526-4.522
		c2.507,0,4.528,2.021,4.528,4.522c0,2.509-2.021,4.532-4.528,4.532C59.482,38.333,57.462,36.309,57.462,33.8"/>
</g>
<g>
	<path fill="#FFFFFF" d="M107.337,29.868l-2.149,3.778c-1.657-1.157-3.901-1.853-5.861-1.853c-2.239,0-3.624,0.925-3.624,2.587
		c0,2.019,2.461,2.489,6.119,3.801c3.933,1.39,6.192,3.026,6.192,6.625c0,4.926-3.874,7.693-9.444,7.693
		c-2.715,0-5.989-0.697-8.505-2.232l1.566-4.188c2.047,1.082,4.49,1.72,6.673,1.72c2.938,0,4.335-1.083,4.335-2.686
		c0-1.835-2.13-2.388-5.567-3.525c-3.919-1.309-6.637-3.024-6.637-7.013c0-4.494,3.599-7.075,8.78-7.075
		C102.824,27.5,105.727,28.643,107.337,29.868"/>
	<polygon fill="#FFFFFF" points="124.142,32.254 124.142,52.087 119.08,52.087 119.08,32.254 111.732,32.254 111.732,27.914 
		131.466,27.914 131.466,32.254 	"/>
	<polygon fill="#FFFFFF" points="142.137,32.243 142.137,37.688 151.825,37.688 151.825,42.034 142.137,42.034 142.137,47.701 
		153.38,47.701 153.38,52.087 137.079,52.087 137.079,27.914 153.38,27.914 153.38,32.243 	"/>
	<path fill="#FFFFFF" d="M164.675,47.393l-1.594,4.694h-5.312l9.064-24.172h5.094l9.318,24.172h-5.486l-1.633-4.694H164.675
		L164.675,47.393z M169.354,33.682l-3.303,9.673h6.672L169.354,33.682z"/>
	<polygon fill="#FFFFFF" points="207.229,37.259 200.609,51.384 197.755,51.384 191.249,37.382 191.249,52.087 186.398,52.087 
		186.398,27.914 191.236,27.914 199.359,45.361 207.195,27.914 212.079,27.914 212.079,52.087 207.229,52.087 	"/>
	<path fill="#FFFFFF" d="M221.861,30.963c0,2.078-1.555,3.373-3.342,3.373c-1.797,0-3.356-1.295-3.356-3.373
		s1.562-3.361,3.356-3.361C220.309,27.602,221.861,28.885,221.861,30.963 M215.727,30.963c0,1.739,1.254,2.829,2.795,2.829
		c1.53,0,2.778-1.09,2.778-2.829c0-1.742-1.248-2.817-2.778-2.817C216.986,28.146,215.727,29.234,215.727,30.963 M218.564,29.245
		c0.865,0,1.156,0.459,1.156,0.955c0,0.455-0.27,0.759-0.596,0.914l0.775,1.456h-0.635l-0.654-1.292h-0.674v1.292h-0.535v-3.324
		L218.564,29.245L218.564,29.245z M217.938,30.791h0.592c0.386,0,0.607-0.239,0.607-0.54c0-0.305-0.16-0.5-0.609-0.5h-0.59V30.791
		L217.938,30.791z"/>
</g>
</svg>
