<?xml version="1.0" encoding="UTF-8"?>
<svg id="katman_1" xmlns="http://www.w3.org/2000/svg" version="1.1" viewBox="0 0 252 80">
  <!-- Generator: Adobe Illustrator 29.6.1, SVG Export Plug-In . SVG Version: 2.1.1 Build 9)  -->
  <defs>
    <style>
      .st0 {
        fill: #fff;
      }

      .st1 {
        fill: #191919;
      }

      .st2 {
        fill: #ffcf00;
      }
    </style>
  </defs>
  <rect class="st2" width="252" height="80"/>
  <g>
    <path class="st1" d="M77.13,34.95c-.06-3.18-.14-9.6-.85-12.7-.31-1.36-1.16-4.14-2.09-5.19-1.17-1.32-2.4-2.94-6.2-3.41-2.4-.3-7.26-.53-9.68-.54-2.4,0-7.59.16-9.52.39-1.33.16-3.02.31-3.95,1.24-.86.86-1.42,2.08-1.7,2.86-.85,2.37-1.31,6.64-1.58,10.23-3.18-1.89-7.82-5.06-7.79-7.36.02-1.71,5.81-4.42,5.81-4.42.93,1.16,2.04,1.68,2.24.54.16-.85-2.4-3.41-.46-5.65,1.38-1.6,2.6-.64,3.18.08.31.39,1.32,1.4,2.09.93.8-.48-.63-2.79-1.4-3.33-1.27-.91-4.34-1.24-5.96.62-1.6,1.83-.54,5.34-.54,5.34,0,0-8.1,2.81-8.44,5.27-.49,3.6,7,9.77,10.96,12.76-.17,3.34-.22,9.02.04,11.94.12,1.38.66,4.17,1.4,5.34.64,1.01,1.47,2.24,3.64,3.1.99.39,2.44.64,4,.82-.58,2.77,1.22,9.74,1.22,9.74,0,0-.93-.39-2.56-.16-2.59.37-3.48,2.32-3.48,2.32,0,0,2.09.39,4.42.39,2.01,0,3.8-.54,3.8-.54,0,0-.26-8.18.45-11.45,1.06.05,2.02.09,2.76.12,1.64.07,4.19.11,6.65.04.72,2.91-.18,11.08-.18,11.08,0,0,1.9.6,3.91.73,2.32.16,4.18-.62,4.18-.62,0,0-.67-1.4-3.23-1.95-1.61-.34-2.56-.02-2.56-.02,0,0,2.1-6.18,1.5-9.41.67-.06,1.29-.14,1.81-.23,1.37-.25,4.33-.75,5.27-1.78,2.32-2.56,2.24-4.03,2.56-6.5.33-2.63.36-7.96.31-10.61"/>
    <path class="st0" d="M58.62,17.61c-4.18-.31-8.52.7-9.6,5.58-1.06,4.76,2.4,7.9,5.81,8.98,9.9,3.15,14.66-.12,15.34-4.03,1.4-8.06-7.64-10.25-11.54-10.53"/>
    <path class="st1" d="M60.71,20.47c-.57.37-1.32,1.63-.31,3.02.54.74,2.09,1.78,3.48.85,1.24-.83,1.16-2.01.46-3.02-.6-.86-2.09-1.86-3.64-.85"/>
  </g>
  <g>
    <path class="st1" d="M96.43,37.97h6.73v-17.08h6.11v-5.66h-18.96v5.66h6.11v17.08h0Z"/>
    <path class="st1" d="M112.31,37.97h6.73v-8.72h7.58v8.72h6.73V15.23h-6.73v8.36h-7.58v-8.36h-6.73v22.74Z"/>
    <path class="st1" d="M137.12,37.97h6.73V15.23h-6.73v22.74Z"/>
    <path class="st1" d="M147.63,37.97h6.73v-11.91l7.12,11.91h6.5V15.23h-6.73v11.91l-7.09-11.91h-6.54v22.74h0Z"/>
    <polygon class="st1" points="208.57 15.23 203.79 23.08 199.3 15.23 185.49 15.23 178.5 24.05 178.5 15.23 171.77 15.23 171.77 37.97 178.5 37.97 178.5 28.47 186.11 37.97 194.05 37.97 184.68 26.26 192.67 16.18 200.41 29.32 200.41 37.97 207.14 37.97 207.14 29.32 215.73 15.23 208.57 15.23"/>
    <path class="st1" d="M103.59,66.77c3.69,0,6.75-.74,9.19-2.23v-11.81h-9.81v4.42h3.3v3c-.62.27-1.42.41-2.41.41-2.02,0-3.56-.51-4.63-1.54-1.07-1.02-1.6-2.54-1.6-4.54s.56-3.39,1.67-4.45,2.75-1.59,4.9-1.59c1.65,0,3.11.17,4.37.51s2.4.88,3.41,1.62v-6.45c-2.02-1.31-4.82-1.96-8.39-1.96-2.66,0-4.99.49-6.98,1.48-2,.99-3.53,2.41-4.61,4.27s-1.62,4.05-1.62,6.56.54,4.7,1.62,6.55c1.08,1.84,2.62,3.26,4.61,4.25,2,.99,4.32,1.48,6.98,1.48h0v.02Z"/>
    <path class="st1" d="M113.86,66.27h7.3l1.82-4.49h7.88l1.79,4.49h7.3l-9.6-23.59h-6.85l-9.63,23.59h-.01ZM124.59,56.49l2.31-6.61,2.31,6.61h-4.62Z"/>
    <path class="st1" d="M141.26,66.27h6.64v-10.46l4.92,10.46h2.96l4.92-10.46v10.46h6.64v-23.59h-6.5l-6.54,13.87-6.54-13.87h-6.5v23.59h0Z"/>
    <path class="st1" d="M171.29,66.27h20.26v-5.87h-13.14v-3.24h10.25v-5.37h-10.25v-3.24h13.14v-5.87h-20.26v23.59h0Z"/>
    <path class="st1" d="M202.92,66.77c3.32,0,5.81-.63,7.47-1.89,1.65-1.26,2.48-3,2.48-5.23,0-1.28-.19-2.35-.58-3.19s-1.03-1.59-1.91-2.23-2.14-1.29-3.77-1.94l-.76-.3c-1.38-.54-2.31-.96-2.81-1.27-.49-.3-.74-.7-.74-1.2s.28-.87.83-1.13,1.29-.39,2.2-.39c2.09,0,4.13.54,6.13,1.62v-5.97c-1.1-.52-2.24-.89-3.41-1.13s-2.51-.35-4.03-.35c-1.86,0-3.5.3-4.92.91s-2.53,1.46-3.32,2.55c-.79,1.09-1.19,2.33-1.19,3.73,0,1.66.5,3.06,1.5,4.19,1,1.13,2.61,2.16,4.84,3.11,1.15.49,1.98.87,2.51,1.13.53.26.92.53,1.19.81s.4.61.4.99c0,.92-.88,1.38-2.65,1.38-1.22,0-2.52-.17-3.91-.51s-2.71-.84-3.98-1.52v6.17c.96.49,2.23.89,3.78,1.2,1.56.3,3.11.46,4.65.46h0Z"/>
  </g>
</svg>