<?xml version="1.0" encoding="UTF-8"?>
<svg id="katman_1" xmlns="http://www.w3.org/2000/svg" version="1.1" viewBox="0 0 252 80">
  <!-- Generator: Adobe Illustrator 29.6.1, SVG Export Plug-In . SVG Version: 2.1.1 Build 9)  -->
  <defs>
    <style>
      .st0 {
        fill: #fff;
      }

      .st1 {
        fill: #212121;
      }

      .st2 {
        fill: #f03;
      }
    </style>
  </defs>
  <rect class="st1" width="252" height="80"/>
  <g>
    <rect class="st0" x="45.72" y="28.37" width="25.44" height="23.56"/>
    <path class="st2" d="M84.87,26.25c-.66-2.46-2.6-4.4-5.06-5.06-4.45-1.19-22.32-1.19-22.32-1.19,0,0-17.87,0-22.32,1.19-2.46.66-4.4,2.6-5.06,5.06-1.19,4.45-1.19,13.75-1.19,13.75,0,0,0,9.3,1.19,13.75.66,2.46,2.6,4.4,5.06,5.06,4.45,1.19,22.32,1.19,22.32,1.19,0,0,17.87,0,22.32-1.19,2.46-.66,4.4-2.6,5.06-5.06,1.19-4.45,1.19-13.75,1.19-13.75,0,0,0-9.3-1.19-13.75ZM51.77,48.57v-17.14l14.85,8.57-14.85,8.57Z"/>
  </g>
  <g>
    <path class="st0" d="M115.13,31.7v24.91h-5.42v-24.91h-7.68v-4.8h21.41l-1.34,4.8h-6.96Z"/>
    <path class="st0" d="M128.71,35.49c1.47-2.05,3.73-3.07,6.77-3.07h.67v5.33h-.67c-2.14,0-3.7.56-4.68,1.68-.98,1.12-1.46,2.91-1.46,5.38v11.81h-5.28v-24h4.66v2.88Z"/>
    <path class="st0" d="M139.61,34.19c2.4-1.34,5.21-2.02,8.45-2.02,3.39,0,5.91.95,7.56,2.86,1.65,1.9,2.47,4.82,2.47,8.76v12.82h-4.46v-2.02c-1.22,1.63-3.36,2.45-6.43,2.45-2.75,0-4.9-.7-6.43-2.09s-2.3-3.32-2.3-5.78.78-4.3,2.33-5.69c1.55-1.39,3.67-2.09,6.36-2.09,2.37,0,4.3.4,5.81,1.2-.06-2.05-.53-3.51-1.39-4.39-.86-.88-2.26-1.32-4.18-1.32s-4,.42-6.14,1.25l-1.63-3.94ZM148.29,52.48c3.1,0,4.66-1.1,4.66-3.31s-1.55-3.26-4.66-3.26-4.75,1.12-4.75,3.36,1.58,3.22,4.75,3.22Z"/>
    <path class="st0" d="M168.17,28.41c-.61.59-1.36.89-2.26.89s-1.65-.3-2.26-.89c-.61-.59-.91-1.35-.91-2.28s.3-1.69.91-2.28c.61-.59,1.36-.89,2.26-.89s1.65.3,2.26.89c.61.59.91,1.35.91,2.28s-.3,1.69-.91,2.28ZM171.05,56.8h-1.2c-2.37,0-4.06-.54-5.06-1.63-1.01-1.09-1.51-2.91-1.51-5.47v-17.09h5.28v16.66c0,.9.14,1.54.41,1.92.27.38.73.58,1.37.58h.72v5.04Z"/>
    <path class="st0" d="M183.81,56.8h-1.63c-2.5,0-4.27-.54-5.33-1.63-1.06-1.09-1.58-2.91-1.58-5.47v-25.92h5.28v25.49c0,.93.17,1.59.5,1.99.34.4.9.6,1.7.6h1.06v4.94Z"/>
    <path class="st0" d="M206.13,46.67h-14.35c.48,3.71,2.51,5.57,6.1,5.57,1.92,0,3.7-.67,5.33-2.02l2.74,3.65c-2.3,2.11-5.14,3.17-8.5,3.17s-6.17-1.08-8.14-3.24c-1.97-2.16-2.95-5.13-2.95-8.9s.94-6.96,2.83-9.26c1.89-2.3,4.43-3.46,7.63-3.46,3.62,0,6.24,1.41,7.87,4.22,1.09,1.86,1.63,4.37,1.63,7.54,0,.7-.06,1.62-.19,2.74ZM191.78,42.35h9.36c0-1.76-.37-3.07-1.1-3.94-.77-.96-1.89-1.44-3.36-1.44-2.78,0-4.42,1.79-4.9,5.38Z"/>
    <path class="st0" d="M215.64,35.49c1.47-2.05,3.73-3.07,6.77-3.07h.67v5.33h-.67c-2.14,0-3.7.56-4.68,1.68-.98,1.12-1.46,2.91-1.46,5.38v11.81h-5.28v-24h4.66v2.88Z"/>
  </g>
</svg>